# xmcd
#
# Track frame offsets:
#	183
#	13445
#	25668
#	37220
#	51185
#	63193
#	76888
#	87913
#	102623
#	116790
#
# Disc length: 1734 seconds
#
# Revision: 7
# Processed by: cddbd v1.5.2PL0 Copyright (c) Steve Scherf et al.
# Submitted via: EZCDAudioConverter 6.0.7.1
#
DISCID=8406c40a
DTITLE=Glen Campbell - All-Time Favorite Hits
DYEAR=1991
DGENRE=Country
TTITLE0=Gentle On My Mind
TTITLE1=By the Time I Get to Phoenix
TTITLE2=Dreams of the Everyday Housewife
TTITLE3=Wichita Lineman
TTITLE4=Galveston
TTITLE5=Honey Come Back
TTITLE6=It's Only Make Believe
TTITLE7=Rhinestone Cowboy
TTITLE8=Country Boy (You Got Your Feet in L.A.)
TTITLE9=Southern Nights
EXTD=
EXTT0=
EXTT1=
EXTT2=
EXTT3=
EXTT4=
EXTT5=
EXTT6=
EXTT7=
EXTT8=
EXTT9=
PLAYORDER=
